#!OML:ASF E:\Steps\Project 1\Capture day 1\Session 2\Subject.ASF
:FULLY-SPECIFIED
:DEGREES
859
root 8.92466 22.6408 -20.8179 -155.764 -0.283146 179.58
lowerback -29.0367 -1.58328 -5.46842
upperback -2.28957 -1.1624 0.303465
thorax 12.8526 -1.16834 2.7872
lowerneck -3.33136 -3.32852 0.0577339
upperneck 10.3289 -4.41822 2.18384
head 4.01525 -1.96107 0.523279
rclavicle -6.4605e-015 -5.56597e-015
rhumerus -39.8619 -15.7016 -76.5438
rradius 36.3502
rwrist 0.267072
rhand -6.6706 -55.459
rfingers 7.12502
rthumb 19.1876 -84.5325
lclavicle -6.4605e-015 -5.56597e-015
lhumerus -38.2445 27.8647 63.5607
lradius 9.27985
lwrist -29.1189
lhand -20.2045 -12.5017
lfingers 7.12502
lthumb 6.14243 17.3892
rfemur -21.9564 8.06594 18.6161
rtibia 6.61777
rfoot -17.8786 -3.87768
rtoes -27.287
lfemur -20.2462 -8.93841 -21.1734
ltibia 9.52879
lfoot -10.8728 0.769801
ltoes -31.3897
860
root 8.92944 22.6373 -20.8246 -155.712 -0.437694 179.648
lowerback -29.1439 -1.53721 -5.33044
upperback -2.23098 -1.13155 0.310001
thorax 12.9648 -1.14714 2.72926
lowerneck -3.5072 -3.3192 0.0583954
upperneck 9.94727 -4.43316 2.24676
head 3.91601 -1.98113 0.541579
rclavicle -1.26725e-015 9.93923e-015
rhumerus -39.5741 -15.2416 -76.8347
rradius 36.2931
rwrist -0.523343
rhand -7.15352 -55.6553
rfingers 7.12502
rthumb 18.7232 -84.7742
lclavicle -1.26725e-015 9.93923e-015
lhumerus -38.1875 27.9248 63.5279
lradius 9.59067
lwrist -29.104
lhand -20.3583 -13.2027
lfingers 7.12502
lthumb 5.99391 16.6926
rfemur -21.8498 7.81982 18.7931
rtibia 6.42727
rfoot -17.9187 -3.75095
rtoes -27.7619
lfemur -20.2466 -9.00149 -21.0578
ltibia 9.42052
lfoot -10.8159 0.756455
ltoes -31.8596
861
root 8.9339 22.6346 -20.8303 -155.644 -0.408011 179.644
lowerback -29.4348 -1.51473 -5.35164
upperback -2.04953 -1.05595 0.339971
thorax 13.2983 -1.11642 2.79686
lowerneck -3.79013 -3.21888 0.426405
upperneck 9.39471 -4.32492 1.90007
head 3.75394 -1.95232 0.365462
rclavicle 3.40419e-015 -7.55382e-015
rhumerus -39.0608 -14.8082 -77.125
rradius 36.5115
rwrist -0.970153
rhand -7.12681 -56.1898
rfingers 7.12502
rthumb 18.7489 -85.3062
lclavicle 3.40419e-015 -7.55382e-015
lhumerus -38.0605 28.1493 63.6056
lradius 10.2565
lwrist -29.1248
lhand -20.0079 -13.051
lfingers 7.12502
lthumb 6.3322 16.8343
rfemur -21.8581 7.73937 18.8041
rtibia 6.31115
rfoot -17.8411 -3.62363
rtoes -27.5531
lfemur -20.2624 -9.03962 -21.0381
ltibia 9.29994
lfoot -10.7568 0.882908
ltoes -32.1391
862
root 8.9382 22.6354 -20.8351 -155.534 -0.426074 179.714
lowerback -29.445 -1.43178 -5.29182
upperback -2.12657 -0.985053 0.362255
thorax 13.2086 -1.08365 2.81495
lowerneck -3.81141 -3.04163 1.0102
upperneck 8.72722 -4.1085 1.43288
head 3.49494 -1.86818 0.124576
rclavicle 2.48481e-016 8.34896e-015
rhumerus -39.0732 -14.6529 -77.2125
rradius 36.9183
rwrist -1.13565
rhand -7.27561 -56.3241
rfingers 7.12502
rthumb 18.6057 -85.4543
lclavicle 2.48481e-016 8.34896e-015
lhumerus -37.5861 26.6288 64.9253
lradius 10.9597
lwrist -27.277
lhand -19.6702 -12.1624
lfingers 7.12502
lthumb 6.65824 17.713
rfemur -21.9201 7.65624 18.9158
rtibia 6.22523
rfoot -17.6981 -3.51995
rtoes -27.8173
lfemur -20.3606 -9.075 -20.8964
ltibia 9.26221
lfoot -10.7066 0.913197
ltoes -31.3557
863
root 8.94354 22.6398 -20.8397 -155.433 -0.494234 179.779
lowerback -29.4426 -1.34591 -5.20514
upperback -2.21363 -0.917038 0.350329
thorax 13.1011 -1.05001 2.78039
lowerneck -3.88241 -2.95225 1.28776
upperneck 8.4021 -4.00402 1.24258
head 3.38409 -1.82613 0.0202769
rclavicle 3.05631e-015 1.35174e-014
rhumerus -39 -14.7075 -77.2641
rradius 36.8877
rwrist -1.13685
rhand -7.54627 -55.9721
rfingers 7.12502
rthumb 18.3454 -85.1271
lclavicle 3.05631e-015 1.35174e-014
lhumerus -37.2012 25.6812 65.7413
lradius 11.3677
lwrist -26.1306
lhand -19.595 -11.7126
lfingers 7.12502
lthumb 6.7308 18.1604
rfemur -21.9816 7.4864 19.0521
rtibia 6.16471
rfoot -17.7274 -3.40028
rtoes -27.941
lfemur -20.4761 -9.0224 -20.7586
ltibia 9.2724
lfoot -10.6134 0.829828
ltoes -30.4835
864
root 8.94747 22.6396 -20.8467 -155.438 -0.506707 179.677
lowerback -29.432 -1.29944 -5.26045
upperback -2.2565 -0.839592 0.289162
thorax 13.0388 -1.01772 2.77359
lowerneck -3.95783 -2.95022 1.29231
upperneck 8.28648 -4.00997 1.2712
head 3.35913 -1.83165 0.0281015
rclavicle -2.75814e-015 -5.96354e-016
rhumerus -38.802 -14.6525 -77.3457
rradius 36.5939
rwrist -1.15383
rhand -7.43095 -55.99
rfingers 7.12502
rthumb 18.4563 -85.1344
lclavicle -2.75814e-015 -5.96354e-016
lhumerus -36.8077 24.8295 66.4499
lradius 11.5771
lwrist -25.0249
lhand -19.9805 -12.3561
lfingers 7.12502
lthumb 6.3586 17.5284
rfemur -21.8909 7.19925 19.0097
rtibia 6.09155
rfoot -17.8028 -3.20314
rtoes -28.0213
lfemur -20.3974 -9.05146 -20.8725
ltibia 9.19779
lfoot -10.5778 0.843023
ltoes -30.9191
865
root 8.95163 22.6356 -20.8537 -155.524 -0.432602 179.408
lowerback -29.4745 -1.33945 -5.53212
upperback -2.19505 -0.78206 0.222833
thorax 13.1212 -1.00505 2.87061
lowerneck -4.16444 -2.75402 1.31248
upperneck 8.17451 -4.05949 1.2498
head 3.36031 -1.98962 0.00506764
rclavicle 5.2181e-015 5.76476e-015
rhumerus -38.4949 -14.5321 -77.4495
rradius 36.4842
rwrist -1.13155
rhand -7.13019 -56.2153
rfingers 7.12502
rthumb 18.7456 -85.3321
lclavicle 5.2181e-015 5.76476e-015
lhumerus -36.2743 23.9007 67.3106
lradius 11.7499
lwrist -23.6708
lhand -20.2791 -13.0894
lfingers 7.12502
lthumb 6.07036 16.8037
rfemur -21.6819 7.01965 18.732
rtibia 5.96095
rfoot -17.8423 -3.06838
rtoes -27.8546
lfemur -20.1992 -9.10596 -21.225
ltibia 9.08938
lfoot -10.6026 0.884493
ltoes -32.2284
866
root 8.96006 22.6351 -20.8497 -155.686 -0.229709 178.908
lowerback -29.0165 -1.41414 -6.11252
upperback -2.3419 -0.722178 0.104928
thorax 12.7374 -0.999436 3.08736
lowerneck -4.04498 -2.75255 1.28858
upperneck 8.07898 -4.04974 1.24874
head 3.30478 -1.98676 0.0124287
rclavicle 1.98785e-015 -2.72335e-014
rhumerus -38.5555 -14.3209 -77.5245
rradius 36.5281
rwrist -1.14074
rhand -6.98075 -56.3807
rfingers 7.12502
rthumb 18.8893 -85.4836
lclavicle 1.98785e-015 -2.72335e-014
lhumerus -36.0409 22.4378 68.3021
lradius 12.1731
lwrist -21.7481
lhand -20.0745 -12.5736
lfingers 7.12502
lthumb 6.26789 17.3137
rfemur -21.514 7.10632 18.0958
rtibia 5.88184
rfoot -17.7805 -3.18285
rtoes -27.7943
lfemur -20.0347 -9.07763 -21.8468
ltibia 9.11689
lfoot -10.6407 0.855431
ltoes -32.8955
867
root 8.96368 22.6362 -20.8578 -155.505 -0.279895 179.153
lowerback -29.1477 -1.30588 -5.81994
upperback -2.45792 -0.701715 0.157812
thorax 12.6639 -0.981759 2.9901
lowerneck -3.9757 -2.74436 1.23517
upperneck 7.97297 -4.02881 1.26391
head 3.25643 -1.9775 0.0297907
rclavicle -5.61567e-015 -1.35174e-014
rhumerus -38.4098 -14.2104 -77.6366
rradius 36.4094
rwrist -1.09372
rhand -6.88428 -56.552
rfingers 7.12502
rthumb 18.9821 -85.6458
lclavicle -5.61567e-015 -1.35174e-014
lhumerus -35.8147 20.7998 69.429
lradius 12.8785
lwrist -19.6538
lhand -19.8393 -11.8809
lfingers 7.12502
lthumb 6.495 17.9996
rfemur -21.6411 7.13274 18.3886
rtibia 5.80996
rfoot -17.7467 -3.11457
rtoes -27.7115
lfemur -20.1824 -9.07815 -21.4977
ltibia 9.06903
lfoot -10.6812 0.921918
ltoes -32.7049
868
root 8.96973 22.632 -20.8636 -155.536 -0.437753 179.447
lowerback -29.15 -1.24918 -5.54489
upperback -2.43277 -0.722523 0.280814
thorax 12.6998 -0.976971 2.96684
lowerneck -4.06711 -2.73086 1.12542
upperneck 7.88027 -3.99931 1.31719
head 3.24563 -1.96148 0.0665598
rclavicle 6.93262e-015 -6.95746e-015
rhumerus -37.9545 -14.171 -77.6858
rradius 36.0675
rwrist -0.847569
rhand -6.75832 -56.3258
rfingers 7.12502
rthumb 19.1032 -85.4077
lclavicle 6.93262e-015 -6.95746e-015
lhumerus -35.6231 19.4445 70.5028
lradius 13.7322
lwrist -17.9135
lhand -19.9586 -11.9863
lfingers 7.12502
lthumb 6.37975 17.8977
rfemur -21.5245 7.20536 18.7947
rtibia 5.70291
rfoot -17.6985 -3.14367
rtoes -27.698
lfemur -20.1321 -9.05469 -21.0889
ltibia 9.03783
lfoot -10.6927 0.880684
ltoes -32.4082
869
root 8.97243 22.6341 -20.8723 -155.344 -0.418367 179.305
lowerback -29.5084 -1.25033 -5.68446
upperback -2.4254 -0.666328 0.238066
thorax 12.8612 -0.968445 3.01023
lowerneck -4.12779 -2.71564 1.04068
upperneck 7.82636 -3.98064 1.44988
head 3.2438 -1.94872 0.124347
rclavicle 3.05631e-015 3.37934e-015
rhumerus -37.6796 -14.2094 -77.7158
rradius 35.9069
rwrist -0.640709
rhand -6.63113 -56.0834
rfingers 7.12502
rthumb 19.2256 -85.1531
lclavicle 3.05631e-015 3.37934e-015
lhumerus -35.509 18.158 71.4359
lradius 14.631
lwrist -16.3422
lhand -20.2279 -12.3433
lfingers 7.12502
lthumb 6.1198 17.5483
rfemur -21.6896 7.04042 18.6457
rtibia 5.66569
rfoot -17.6906 -3.02229
rtoes -27.8686
lfemur -20.3147 -9.03135 -21.2484
ltibia 9.0614
lfoot -10.6589 0.790969
ltoes -32.0384
870
root 8.97879 22.6343 -20.8766 -155.223 -0.490909 179.5
lowerback -29.6981 -1.17773 -5.49625
upperback -2.45362 -0.638374 0.26504
thorax 12.9119 -0.952062 2.94427
lowerneck -4.15176 -2.69246 1.0313
upperneck 7.7502 -3.95345 1.5528
head 3.22484 -1.93135 0.160687
rclavicle 3.97569e-015 0
rhumerus -37.6019 -14.2686 -77.7994
rradius 36.053
rwrist -0.506921
rhand -6.46167 -56.2963
rfingers 7.12502
rthumb 19.3885 -85.3497
lclavicle 3.97569e-015 0
lhumerus -35.2543 17.0036 72.2455
lradius 15.2466
lwrist -14.876
lhand -20.3872 -12.3496
lfingers 7.12502
lthumb 5.96598 17.5464
rfemur -21.8206 7.18414 18.8751
rtibia 5.68478
rfoot -17.728 -3.10244
rtoes -27.5741
lfemur -20.4714 -8.95569 -20.9494
ltibia 9.07445
lfoot -10.6275 0.770251
ltoes -32.0019
871
root 8.98452 22.6339 -20.8753 -155.21 -0.551696 179.607
lowerback -29.6294 -1.14428 -5.39986
upperback -2.49446 -0.637529 0.282251
thorax 12.8355 -0.945803 2.91193
lowerneck -3.99321 -2.64615 1.06815
upperneck 7.43876 -3.87986 1.60931
head 3.08798 -1.8929 0.180978
rclavicle -4.22417e-015 1.39149e-015
rhumerus -37.5415 -14.1675 -77.9529
rradius 36.3035
rwrist -0.375459
rhand -6.28564 -56.7457
rfingers 7.12502
rthumb 19.5577 -85.782
lclavicle -4.22417e-015 1.39149e-015
lhumerus -34.9522 16.1993 72.8823
lradius 15.6691
lwrist -13.7543
lhand -20.3775 -12.2096
lfingers 7.12502
lthumb 5.97532 17.6861
rfemur -21.8833 7.26021 19.009
rtibia 5.74521
rfoot -17.7545 -3.14393
rtoes -27.0941
lfemur -20.5109 -8.99129 -20.7515
ltibia 9.07409
lfoot -10.6853 0.778909
ltoes -32.0436
872
root 8.9868 22.6345 -20.8747 -155.174 -0.612203 179.617
lowerback -29.6566 -1.08579 -5.33237
upperback -2.42764 -0.566002 0.272622
thorax 12.9181 -0.907633 2.89281
lowerneck -4.04189 -2.63597 1.01097
upperneck 7.14004 -3.84366 1.63801
head 2.99686 -1.87264 0.203409
rclavicle -3.13086e-015 -9.14409e-015
rhumerus -37.2089 -14.1052 -78.0425
rradius 36.3525
rwrist -0.113942
rhand -5.86438 -57.1118
rfingers 7.12502
rthumb 19.9627 -86.1065
lclavicle -3.13086e-015 -9.14409e-015
lhumerus -34.5205 15.7953 73.4197
lradius 16.0556
lwrist -13.2611
lhand -20.3597 -12.3563
lfingers 7.12502
lthumb 5.99254 17.5389
rfemur -21.941 7.12097 19.0681
rtibia 5.78313
rfoot -17.7514 -3.09034
rtoes -27.1036
lfemur -20.5541 -9.12232 -20.6928
ltibia 9.09558
lfoot -10.7575 0.804817
ltoes -31.9318
